<?xml version="1.0" encoding="UTF-8" standalone="no"?>
<!-- Created with Inkscape (http://www.inkscape.org/) -->

<svg
   width="135.81633mm"
   height="135.59041mm"
   viewBox="0 0 135.81633 135.59041"
   version="1.1"
   id="svg1"
   xml:space="preserve"
   inkscape:export-filename="error-404.png"
   inkscape:export-xdpi="96"
   inkscape:export-ydpi="96"
   xmlns:inkscape="http://www.inkscape.org/namespaces/inkscape"
   xmlns:sodipodi="http://sodipodi.sourceforge.net/DTD/sodipodi-0.dtd"
   xmlns="http://www.w3.org/2000/svg"
   xmlns:svg="http://www.w3.org/2000/svg"><sodipodi:namedview
     id="namedview1"
     pagecolor="#ffffff"
     bordercolor="#000000"
     borderopacity="0.25"
     inkscape:showpageshadow="2"
     inkscape:pageopacity="0.0"
     inkscape:pagecheckerboard="0"
     inkscape:deskcolor="#d1d1d1"
     inkscape:document-units="mm"><inkscape:page
       x="-3.1031064e-13"
       y="-1.2963534e-13"
       width="135.81631"
       height="135.59039"
       id="page2"
       margin="0"
       bleed="0" /></sodipodi:namedview><defs
     id="defs1" /><g
     inkscape:label="Layer 1"
     inkscape:groupmode="layer"
     id="layer1"
     transform="translate(-31.103276,-46.686882)"><path
       style="fill:#030303;stroke:none"
       d="m 87.247864,168.17264 v 9.525 c 10e-5,1.52654 -0.10871,3.08549 1.33455,4.03694 1.2588,0.82985 3.3132,0.46098 4.75087,0.46098 h 11.641656 43.39167 12.43542 c 1.60152,0 3.7237,0.38876 4.96665,-0.85418 1.83408,-1.83409 0.85418,-7.03748 0.85418,-9.46457 v -26.19375 c 0,-2.5612 1.07019,-8.33396 -0.85418,-10.25832 -1.32606,-1.32605 -3.78565,-0.85418 -5.49582,-0.85418 h -13.75833 c 6.6862,-11.49894 7.66914,-26.92694 5.02627,-39.687501 -0.88581,-4.276911 -3.0918,-8.243052 -3.96548,-12.435416 -0.46316,-2.222466 2.09865,-6.046627 2.81976,-8.202083 2.28131,-6.819011 4.22291,-15.526651 -0.11004,-21.960415 -5.46489,-8.11454 -17.19727,-5.676204 -24.93718,-3.086803 -2.17784,0.728597 -5.94342,3.291191 -8.20208,2.819765 -2.92953,-0.611453 -5.81015,-2.248288 -8.73125,-3.060262 -6.04277,-1.679694 -12.515196,-2.49313 -18.785416,-2.218534 -29.06117,1.272669 -53.57113,23.335784 -57.83064,52.112498 -1.12509,7.600921 -0.79999,15.545701 1.04424,23.018751 0.86831,3.5185 3.39954,7.59921 3.67334,11.1125 0.17272,2.21631 -1.99645,5.30473 -2.7132,7.40833 -2.50919,7.3642 -5.10469,18.05579 1.36803,24.26225 6.35486,6.09345 16.68116,3.64128 24.03115,1.13694 2.14891,-0.7322 4.89496,-2.62809 7.14375,-2.71933 2.02396,-0.0821 4.6894,1.71992 6.61458,2.36164 4.47866,1.4929 9.54961,2.70053 14.2875,2.73975 M 111.32494,55.724728 c -9.00596,5.511921 -17.536176,11.335774 -25.664576,18.10109 -1.80198,1.499796 -7.95497,5.227265 -5.89188,8.067959 2.52851,3.48153 7.6257,-2.896585 9.59605,-4.538547 6.69437,-5.578648 13.689996,-10.741713 21.166656,-15.227631 2.06925,-1.241518 5.72372,-4.364066 8.20209,-3.279935 4.64382,2.031392 8.8965,5.773565 12.43542,9.31248 12.18357,12.183574 18.39125,29.682537 15.94666,46.831246 -0.73869,5.18186 -2.06868,10.30969 -4.24396,15.08125 -0.57301,1.25693 -1.16104,3.72654 -2.52926,4.33827 -2.76257,1.23514 -8.25666,0.15965 -11.29011,0.15965 h -27.51667 -8.995826 c -1.32633,0 -2.84056,-0.22137 -3.95712,0.6439 -2.04492,1.58471 -1.33455,5.00695 -1.33455,7.2936 v 20.37291 c -13.89871,-0.0384 -27.60013,-8.40963 -36.7534,-18.25624 -2.37572,-2.55569 -4.42938,-5.47328 -6.21383,-8.46667 -0.73967,-1.24078 -1.69867,-2.4877 -1.12366,-3.96875 3.67687,-9.47047 11.40491,-18.40724 17.73545,-26.19375 1.57638,-1.93892 7.28918,-6.575278 6.4478,-9.2594 -1.72025,-5.487811 -7.49549,2.587099 -8.86661,4.23232 -6.84577,8.21429 -12.74812,16.82266 -18.32158,25.92916 -1.50295,-1.7049 -1.92694,-4.95414 -2.38043,-7.14375 -1.32211,-6.38354 -1.70962,-12.84327 -0.86909,-19.31458 3.38502,-26.061264 24.74495,-45.696095 50.60993,-48.199083 5.83747,-0.564896 11.74582,-0.03489 17.462496,1.27556 2.03819,0.467219 4.69839,0.875907 6.35,2.208941 m 32.80834,20.108332 h -0.26459 c -5.51674,-8.17769 -11.93065,-14.591599 -20.10833,-20.108332 1.35874,-1.222705 3.56281,-1.670077 5.29167,-2.190774 5.18813,-1.562566 14.10003,-3.472325 17.35225,2.455357 2.97831,5.428448 0.41973,14.737278 -2.271,19.843749 m -26.45834,8.579975 c -2.49907,0.357052 -4.85773,1.154451 -6.87916,2.712585 -10.40309,8.018793 -3.23199,25.25222 9.78958,23.55588 1.95793,-0.25507 3.89906,-0.93411 5.55625,-2.00459 10.97561,-7.0898 5.05454,-26.195693 -8.46667,-24.263875 m -45.504246,1.935379 c -2.99216,1.163971 -1.19305,5.931461 1.84392,4.787402 3.19117,-1.20214 1.31714,-6.017075 -1.84392,-4.787402 m 45.768836,3.322391 c 9.85018,-1.404194 12.29335,14.251995 2.38125,15.715965 -10.42803,1.54017 -12.83951,-14.225084 -2.38125,-15.715965 M 72.431204,115.4438 c -12.0346,0.17488 -11.42714,18.72212 0.52916,18.32158 11.7305,-0.39299 11.2317,-18.49248 -0.52916,-18.32158 m -0.26459,5.20163 c 4.98498,-0.64783 5.77748,7.28661 0.79375,7.78684 -5.00534,0.50239 -5.71118,-7.14779 -0.79375,-7.78684 m -32.01458,18.68763 c 5.509,8.16614 11.94345,14.60019 20.10833,20.10833 v 0.26458 c -5.10912,2.69216 -14.41119,5.25157 -19.84375,2.27101 -5.92768,-3.2522 -4.01792,-12.16415 -2.45535,-17.35225 0.5207,-1.72887 0.96807,-3.93292 2.19077,-5.29167 m 121.179156,0.52917 v 37.04166 H 92.539534 v -37.04166 h 68.791656 m -51.59375,23.81249 c 0,1.82414 -0.54105,4.69345 0.31195,6.34592 1.07592,2.08431 3.93386,1.93111 4.78333,-0.26152 0.73724,-1.90298 0.19639,-4.85392 0.19639,-6.87815 0,-4.93195 0.51894,-10.18207 -0.0288,-15.08124 -0.31059,-2.77817 -3.99517,-3.55803 -5.06648,-0.79274 -1.17311,3.02806 -0.1964,8.13132 -0.1964,11.37607 h -5.29166 v -5.82084 c 0,-1.6882 0.48052,-4.28153 -0.31195,-5.81674 -0.96105,-1.8618 -3.36506,-2.00707 -4.518736,-0.25704 -0.72333,1.09724 -0.46098,2.70786 -0.46098,3.95712 v 8.46666 c 0,1.36113 -0.19655,2.8576 0.854176,3.90833 1.86612,1.86612 7.252,0.85417 9.72915,0.85417 m 15.875,-18.39793 c -7.34369,1.32406 -6.61458,8.73925 -6.61458,14.42918 0,2.55259 -0.32232,5.32666 0.90032,7.67292 1.54791,2.97047 5.06021,4.70519 8.3601,4.11043 7.34479,-1.32378 6.61458,-8.72882 6.61458,-14.42918 0,-2.55259 0.32233,-5.32665 -0.90031,-7.67292 -1.55781,-2.98944 -5.03733,-4.70952 -8.36011,-4.11043 m 23.8125,18.39793 c 0,1.82414 -0.54105,4.69344 0.31195,6.34592 1.07592,2.08431 3.93386,1.93112 4.78333,-0.26152 0.73724,-1.90298 0.19639,-4.85392 0.19639,-6.87815 0,-4.93195 0.51894,-10.18207 -0.0288,-15.08124 -0.31059,-2.77817 -3.99517,-3.55804 -5.06648,-0.79274 -1.17312,3.02805 -0.1964,8.13133 -0.1964,11.37607 h -5.29167 v -5.82084 c 0,-1.6882 0.48053,-4.28154 -0.31194,-5.81674 -0.96106,-1.8618 -3.36505,-2.00707 -4.51874,-0.25704 -0.72334,1.09725 -0.46098,2.70785 -0.46098,3.95712 v 8.46666 c 0,1.36113 -0.19655,2.8576 0.85418,3.90833 1.86612,1.86612 7.25198,0.85417 9.72915,0.85417 M 126.4072,150.55397 c 1.30917,-0.26543 2.59218,0.4818 3.00127,1.74776 0.94244,2.91644 0.59637,8.60861 0.11616,11.63738 -0.1802,1.13655 -0.90272,2.03819 -2.06113,2.27304 -1.30915,0.26541 -2.59218,-0.4818 -3.00127,-1.74776 -0.94243,-2.91644 -0.59637,-8.60862 -0.11616,-11.63738 0.1802,-1.13655 0.90272,-2.03819 2.06113,-2.27304 z"
       id="path1" /></g></svg>
